<svg xmlns="http://www.w3.org/2000/svg" xmlns:xlink="http://www.w3.org/1999/xlink" id="body_1" preserveAspectRatio="xMinYMin meet" viewBox="0 0 793 1123"><defs><clipPath id="1"><path id="" clip-rule="evenodd" transform="matrix(1 0 0 1 0 0)" d="M0 842L0 0L0 0L595 0L595 0L595 842L595 842L0 842z" /></clipPath><clipPath id="2"><path id="" clip-rule="evenodd" transform="matrix(1 0 0 1 0 0)" d="M30.6 30.59998L564.36 30.59998L564.36 30.59998L564.36 812.424L564.36 812.424L30.6 812.424L30.6 812.424L30.6 30.59998z" /></clipPath></defs><g transform="matrix(1.333333 0 0 1.333333 0 0)"><g clip-path="url(#1)"><g clip-path="url(#2)"><path id="1" transform="matrix(1 0 0 -1 0 842)" d="M30.6 709.256L564.3599 709.256L564.3599 707.72L30.6 707.72z" stroke="none" fill="#FFFFFF" fill-rule="nonzero" /><path id="2" transform="matrix(1 0 0 -1 0 842)" d="M30.6 633.992L564.3599 633.992L564.3599 632.4561L30.6 632.4561z" stroke="none" fill="#FFFFFF" fill-rule="nonzero" /><path id="3" transform="matrix(1 0 0 -1 0 842)" d="M30.6 709.256L32.136 709.256L32.136 632.4561L30.6 632.4561z" stroke="none" fill="#FFFFFF" fill-rule="nonzero" /><path id="4" transform="matrix(1 0 0 -1 0 842)" d="M562.8239 709.256L564.3599 709.256L564.3599 632.4561L562.8239 632.4561z" stroke="none" fill="#FFFFFF" fill-rule="nonzero" /><path id="5" transform="matrix(1 0 0 -1 0 842)" d="M32.136 691.592L562.8239 691.592L562.8239 690.824L32.136 690.824z" stroke="none" fill="#404040" fill-rule="nonzero" /><path id="6" transform="matrix(1 0 0 -1 0 842)" d="M30.6 627.08L564.3599 627.08L564.3599 625.544L30.6 625.544z" stroke="none" fill="#FFFFFF" fill-rule="nonzero" /><path id="7" transform="matrix(1 0 0 -1 0 842)" d="M30.6 487.304L564.3599 487.304L564.3599 485.768L30.6 485.768z" stroke="none" fill="#FFFFFF" fill-rule="nonzero" /><path id="8" transform="matrix(1 0 0 -1 0 842)" d="M30.6 627.08L32.136 627.08L32.136 485.768L30.6 485.768z" stroke="none" fill="#FFFFFF" fill-rule="nonzero" /><path id="9" transform="matrix(1 0 0 -1 0 842)" d="M562.8239 627.08L564.3599 627.08L564.3599 485.768L562.8239 485.768z" stroke="none" fill="#FFFFFF" fill-rule="nonzero" /><path id="10" transform="matrix(1 0 0 -1 0 842)" d="M32.136 609.416L562.8239 609.416L562.8239 608.648L32.136 608.648z" stroke="none" fill="#404040" fill-rule="nonzero" /><path id="11" transform="matrix(1 0 0 -1 0 842)" d="M30.6 480.392L564.3599 480.392L564.3599 478.856L30.6 478.856z" stroke="none" fill="#FFFFFF" fill-rule="nonzero" /><path id="12" transform="matrix(1 0 0 -1 0 842)" d="M30.6 335.24L564.3599 335.24L564.3599 333.704L30.6 333.704z" stroke="none" fill="#FFFFFF" fill-rule="nonzero" /><path id="13" transform="matrix(1 0 0 -1 0 842)" d="M30.6 480.392L32.136 480.392L32.136 333.704L30.6 333.704z" stroke="none" fill="#FFFFFF" fill-rule="nonzero" /><path id="14" transform="matrix(1 0 0 -1 0 842)" d="M562.8239 480.392L564.3599 480.392L564.3599 333.704L562.8239 333.704z" stroke="none" fill="#FFFFFF" fill-rule="nonzero" /><path id="15" transform="matrix(1 0 0 -1 0 842)" d="M32.136 462.728L562.8239 462.728L562.8239 461.96L32.136 461.96z" stroke="none" fill="#404040" fill-rule="nonzero" /><path id="16" transform="matrix(1 0 0 -1 0 842)" d="M30.6 328.328L564.3599 328.328L564.3599 326.792L30.6 326.792z" stroke="none" fill="#FFFFFF" fill-rule="nonzero" /><path id="17" transform="matrix(1 0 0 -1 0 842)" d="M30.6 124.04L564.3599 124.04L564.3599 122.504L30.6 122.504z" stroke="none" fill="#FFFFFF" fill-rule="nonzero" /><path id="18" transform="matrix(1 0 0 -1 0 842)" d="M30.6 328.328L32.136 328.328L32.136 122.504L30.6 122.504z" stroke="none" fill="#FFFFFF" fill-rule="nonzero" /><path id="19" transform="matrix(1 0 0 -1 0 842)" d="M562.8239 328.328L564.3599 328.328L564.3599 122.504L562.8239 122.504z" stroke="none" fill="#FFFFFF" fill-rule="nonzero" /><path id="20" transform="matrix(1 0 0 -1 0 842)" d="M32.136 310.664L562.8239 310.664L562.8239 309.896L32.136 309.896z" stroke="none" fill="#404040" fill-rule="nonzero" /><path id="21" transform="matrix(1 0 0 -1 0 842)" d="M30.6 117.128L564.3599 117.128L564.3599 115.592L30.6 115.592z" stroke="none" fill="#FFFFFF" fill-rule="nonzero" /><path id="22" transform="matrix(1 0 0 -1 0 842)" d="M30.6 117.128L32.136 117.128L32.136 28.04004L30.6 28.04004z" stroke="none" fill="#FFFFFF" fill-rule="nonzero" /><path id="23" transform="matrix(1 0 0 -1 0 842)" d="M562.8239 117.128L564.3599 117.128L564.3599 28.04004L562.8239 28.04004z" stroke="none" fill="#FFFFFF" fill-rule="nonzero" /><path id="24" transform="matrix(1 0 0 -1 0 842)" d="M32.136 99.46399L562.8239 99.46399L562.8239 98.69604L32.136 98.69604z" stroke="none" fill="#404040" fill-rule="nonzero" /><g transform="matrix(0.7679999 0 0 0.768 502.9199 30.59998)"><g transform="matrix(1 0 0 1 0 0)"><image x="0" y="0" xlink:href="img_01.png" width="80" height="96" /></g></g><path id="199" transform="matrix(1 0 0 -1 0 842)" d="M39.048 679.304C 39.048 678.4557 38.36031 677.768 37.512 677.768C 36.66369 677.768 35.976 678.4557 35.976 679.304C 35.976 680.1523 36.66369 680.84 37.512 680.84C 38.36031 680.84 39.048 680.1523 39.048 679.304z" stroke="#000000" stroke-width="0.7679999" fill="#000000" fill-rule="evenodd" /><path id="228" transform="matrix(1 0 0 -1 0 842)" d="M39.048 661.64C 39.048 660.7917 38.36031 660.104 37.512 660.104C 36.66369 660.104 35.976 660.7917 35.976 661.64C 35.976 662.4883 36.66369 663.176 37.512 663.176C 38.36031 663.176 39.048 662.4883 39.048 661.64z" stroke="#000000" stroke-width="0.7679999" fill="#000000" fill-rule="evenodd" /><path id="269" transform="matrix(1 0 0 -1 0 842)" d="M39.048 643.976C 39.048 643.1277 38.36031 642.44 37.512 642.44C 36.66369 642.44 35.976 643.1277 35.976 643.976C 35.976 644.8243 36.66369 645.512 37.512 645.512C 38.36031 645.512 39.048 644.8243 39.048 643.976z" stroke="#000000" stroke-width="0.7679999" fill="#000000" fill-rule="evenodd" /><path id="375" transform="matrix(1 0 0 -1 0 842)" d="M39.048 564.104C 39.048 563.2557 38.36031 562.568 37.512 562.568C 36.66369 562.568 35.976 563.2557 35.976 564.104C 35.976 564.9523 36.66369 565.64 37.512 565.64C 38.36031 565.64 39.048 564.9523 39.048 564.104z" stroke="#000000" stroke-width="0.7679999" fill="#000000" fill-rule="evenodd" /><path id="384" transform="matrix(1 0 0 -1 0 842)" d="M39.048 546.4401C 39.048 545.5917 38.36031 544.9041 37.512 544.9041C 36.66369 544.9041 35.976 545.5917 35.976 546.4401C 35.976 547.2883 36.66369 547.976 37.512 547.976C 38.36031 547.976 39.048 547.2883 39.048 546.4401z" stroke="#000000" stroke-width="0.7679999" fill="#000000" fill-rule="evenodd" /><path id="439" transform="matrix(1 0 0 -1 0 842)" d="M39.048 528.776C 39.048 527.9277 38.36031 527.24 37.512 527.24C 36.66369 527.24 35.976 527.9277 35.976 528.776C 35.976 529.6243 36.66369 530.312 37.512 530.312C 38.36031 530.312 39.048 529.6243 39.048 528.776z" stroke="#000000" stroke-width="0.7679999" fill="#000000" fill-rule="evenodd" /><path id="459" transform="matrix(1 0 0 -1 0 842)" d="M39.048 511.112C 39.048 510.2637 38.36031 509.576 37.512 509.576C 36.66369 509.576 35.976 510.2637 35.976 511.112C 35.976 511.9603 36.66369 512.648 37.512 512.648C 38.36031 512.648 39.048 511.9603 39.048 511.112z" stroke="#000000" stroke-width="0.7679999" fill="#000000" fill-rule="evenodd" /><path id="583" transform="matrix(1 0 0 -1 0 842)" d="M39.048 431.24C 39.048 430.3917 38.36031 429.704 37.512 429.704C 36.66369 429.704 35.976 430.3917 35.976 431.24C 35.976 432.0883 36.66369 432.776 37.512 432.776C 38.36031 432.776 39.048 432.0883 39.048 431.24z" stroke="#000000" stroke-width="0.7679999" fill="#000000" fill-rule="evenodd" /><path id="635" transform="matrix(1 0 0 -1 0 842)" d="M39.048 413.576C 39.048 412.7277 38.36031 412.04 37.512 412.04C 36.66369 412.04 35.976 412.7277 35.976 413.576C 35.976 414.4243 36.66369 415.112 37.512 415.112C 38.36031 415.112 39.048 414.4243 39.048 413.576z" stroke="#000000" stroke-width="0.7679999" fill="#000000" fill-rule="evenodd" /><path id="726" transform="matrix(1 0 0 -1 0 842)" d="M39.048 376.712C 39.048 375.8637 38.36031 375.176 37.512 375.176C 36.66369 375.176 35.976 375.8637 35.976 376.712C 35.976 377.5603 36.66369 378.248 37.512 378.248C 38.36031 378.248 39.048 377.5603 39.048 376.712z" stroke="#000000" stroke-width="0.7679999" fill="#000000" fill-rule="evenodd" /><path id="781" transform="matrix(1 0 0 -1 0 842)" d="M39.048 359.048C 39.048 358.1997 38.36031 357.512 37.512 357.512C 36.66369 357.512 35.976 358.1997 35.976 359.048C 35.976 359.8963 36.66369 360.584 37.512 360.584C 38.36031 360.584 39.048 359.8963 39.048 359.048z" stroke="#000000" stroke-width="0.7679999" fill="#000000" fill-rule="evenodd" /><path id="894" transform="matrix(1 0 0 -1 0 842)" d="M39.048 265.352C 39.048 264.5037 38.36031 263.816 37.512 263.816C 36.66369 263.816 35.976 264.5037 35.976 265.352C 35.976 266.2003 36.66369 266.888 37.512 266.888C 38.36031 266.888 39.048 266.2003 39.048 265.352z" stroke="#000000" stroke-width="0.7679999" fill="#000000" fill-rule="evenodd" /><path id="962" transform="matrix(1 0 0 -1 0 842)" d="M39.048 233.864C 39.048 233.0157 38.36031 232.328 37.512 232.328C 36.66369 232.328 35.976 233.0157 35.976 233.864C 35.976 234.7123 36.66369 235.4 37.512 235.4C 38.36031 235.4 39.048 234.7123 39.048 233.864z" stroke="#000000" stroke-width="0.7679999" fill="#000000" fill-rule="evenodd" /><path id="1098" transform="matrix(1 0 0 -1 0 842)" d="M39.048 169.352C 39.048 168.5037 38.36031 167.816 37.512 167.816C 36.66369 167.816 35.976 168.5037 35.976 169.352C 35.976 170.2003 36.66369 170.888 37.512 170.888C 38.36031 170.888 39.048 170.2003 39.048 169.352z" stroke="#000000" stroke-width="0.7679999" fill="#000000" fill-rule="evenodd" /><path id="1134" transform="matrix(1 0 0 -1 0 842)" d="M39.048 151.688C 39.048 150.8397 38.36031 150.152 37.512 150.152C 36.66369 150.152 35.976 150.8397 35.976 151.688C 35.976 152.5363 36.66369 153.224 37.512 153.224C 38.36031 153.224 39.048 152.5363 39.048 151.688z" stroke="#000000" stroke-width="0.7679999" fill="#000000" fill-rule="evenodd" /><path id="1174" transform="matrix(1 0 0 -1 0 842)" d="M39.048 134.024C 39.048 133.1757 38.36031 132.488 37.512 132.488C 36.66369 132.488 35.976 133.1757 35.976 134.024C 35.976 134.8723 36.66369 135.56 37.512 135.56C 38.36031 135.56 39.048 134.8723 39.048 134.024z" stroke="#000000" stroke-width="0.7679999" fill="#000000" fill-rule="evenodd" /><path id="1216" transform="matrix(1 0 0 -1 0 842)" d="M39.048 87.17603C 39.048 86.3277 38.36031 85.64001 37.512 85.64001C 36.66369 85.64001 35.976 86.3277 35.976 87.17603C 35.976 88.02429 36.66369 88.71204 37.512 88.71204C 38.36031 88.71204 39.048 88.02429 39.048 87.17603z" stroke="#000000" stroke-width="0.7679999" fill="#000000" fill-rule="evenodd" /><path id="1248" transform="matrix(1 0 0 -1 0 842)" d="M39.048 69.51202C 39.048 68.6637 38.36031 67.97601 37.512 67.97601C 36.66369 67.97601 35.976 68.6637 35.976 69.51202C 35.976 70.36029 36.66369 71.04803 37.512 71.04803C 38.36031 71.04803 39.048 70.36029 39.048 69.51202z" stroke="#000000" stroke-width="0.7679999" fill="#000000" fill-rule="evenodd" /><path id="1270" transform="matrix(1 0 0 -1 0 842)" d="M39.048 51.84802C 39.048 50.99969 38.36031 50.31201 37.512 50.31201C 36.66369 50.31201 35.976 50.99969 35.976 51.84802C 35.976 52.69629 36.66369 53.38403 37.512 53.38403C 38.36031 53.38403 39.048 52.69629 39.048 51.84802z" stroke="#000000" stroke-width="0.7679999" fill="#000000" fill-rule="evenodd" /><path id="1288" transform="matrix(1 0 0 -1 0 842)" d="M39.048 34.18402C 39.048 33.33569 38.36031 32.64801 37.512 32.64801C 36.66369 32.64801 35.976 33.33569 35.976 34.18402C 35.976 35.03229 36.66369 35.72003 37.512 35.72003C 38.36031 35.72003 39.048 35.03229 39.048 34.18402z" stroke="#000000" stroke-width="0.7679999" fill="#000000" fill-rule="evenodd" /></g></g></g></svg>