<svg xmlns="http://www.w3.org/2000/svg" xmlns:xlink="http://www.w3.org/1999/xlink" id="body_2" preserveAspectRatio="xMinYMin meet" viewBox="0 0 793 1123"><defs><clipPath id="1"><path id="" clip-rule="evenodd" transform="matrix(1 0 0 1 0 0)" d="M0 842L0 0L0 0L595 0L595 0L595 842L595 842L0 842z" /></clipPath><clipPath id="2"><path id="" clip-rule="evenodd" transform="matrix(1 0 0 1 0 0)" d="M30.6 30.59998L564.36 30.59998L564.36 30.59998L564.36 31.36798L564.36 31.36798L30.6 31.36798L30.6 31.36798L30.6 30.59998z" /></clipPath></defs><g transform="matrix(1.333333 0 0 1.333333 0 0)"><g clip-path="url(#1)"><g clip-path="url(#2)"><path id="1" transform="matrix(1 0 0 -1 0 842)" d="M30.6 898.952L564.3599 898.952L564.3599 897.416L30.6 897.416z" stroke="none" fill="#FFFFFF" fill-rule="nonzero" /><path id="2" transform="matrix(1 0 0 -1 0 842)" d="M30.6 898.952L32.136 898.952L32.136 809.864L30.6 809.864z" stroke="none" fill="#FFFFFF" fill-rule="nonzero" /><path id="3" transform="matrix(1 0 0 -1 0 842)" d="M562.8239 898.952L564.3599 898.952L564.3599 809.864L562.8239 809.864z" stroke="none" fill="#FFFFFF" fill-rule="nonzero" /></g></g></g></svg>